<?xml version="1.0" encoding="UTF-8" standalone="no"?> <svg width="512" height="512" viewBox="0 0 512 512" fill="none" xmlns="http://www.w3.org/2000/svg">
<path d="M256 80C158.95 80 80 158.95 80 256C80 353.05 158.95 432 256 432C353.05 432 432 353.05 432 256C432 158.95 353.05 80 256 80ZM144 356.69L137.4 363.28C110.758 333.901 96.0009 295.66 96.0009 256C96.0009 216.34 110.758 178.099 137.4 148.72L144 155.31V356.69ZM256 416C216.334 416.03 178.083 401.268 148.72 374.6L155.31 368H356.69L363.28 374.6C333.917 401.268 295.666 416.03 256 416ZM160 352V160H352V352H160ZM356.69 144H155.31L148.72 137.4C178.099 110.758 216.34 96.0009 256 96.0009C295.66 96.0009 333.901 110.758 363.28 137.4L356.69 144ZM374.6 363.28L368 356.69V155.31L374.6 148.72C401.242 178.099 415.999 216.34 415.999 256C415.999 295.66 401.242 333.901 374.6 363.28V363.28Z" fill="url(#paint0_linear_1_1905)"/>
<path d="M496.27 216L468.11 215.07C462.561 186.405 451.271 159.159 434.92 134.97L454.17 114.39C455.589 112.874 456.364 110.865 456.33 108.789C456.296 106.712 455.457 104.73 453.99 103.26L408.74 58.01C407.27 56.5426 405.288 55.7035 403.211 55.67C401.135 55.6364 399.126 56.4109 397.61 57.83L377.03 77.08C352.841 60.7285 325.595 49.4388 296.93 43.89L296 15.73C295.927 13.6562 295.053 11.6916 293.561 10.2497C292.069 8.80784 290.075 8.00132 288 8H224C221.925 8.00132 219.931 8.80784 218.439 10.2497C216.947 11.6916 216.073 13.6562 216 15.73L215.07 43.89C186.405 49.4388 159.159 60.7285 134.97 77.08L114.39 57.83C112.874 56.4109 110.865 55.6364 108.789 55.67C106.712 55.7035 104.73 56.5426 103.26 58.01L58.01 103.26C56.5426 104.73 55.7035 106.712 55.67 108.789C55.6364 110.865 56.4109 112.874 57.83 114.39L77.08 134.97C60.7285 159.159 49.4388 186.405 43.89 215.07L15.73 216C13.6562 216.073 11.6916 216.947 10.2497 218.439C8.80784 219.931 8.00132 221.925 8 224V288C8.00132 290.075 8.80784 292.069 10.2497 293.561C11.6916 295.053 13.6562 295.927 15.73 296L43.89 296.93C49.4388 325.595 60.7285 352.841 77.08 377.03L57.83 397.61C56.4109 399.126 55.6364 401.135 55.67 403.211C55.7035 405.288 56.5426 407.27 58.01 408.74L103.26 453.99C104.73 455.457 106.712 456.296 108.789 456.33C110.865 456.364 112.874 455.589 114.39 454.17L134.97 434.92C159.159 451.271 186.405 462.561 215.07 468.11L216 496.27C216.073 498.344 216.947 500.308 218.439 501.75C219.931 503.192 221.925 503.999 224 504H288C290.075 503.999 292.069 503.192 293.561 501.75C295.053 500.308 295.927 498.344 296 496.27L296.93 468.11C325.595 462.561 352.841 451.271 377.03 434.92L397.61 454.17C399.126 455.589 401.135 456.364 403.211 456.33C405.288 456.296 407.27 455.457 408.74 453.99L453.99 408.74C455.457 407.27 456.296 405.288 456.33 403.211C456.364 401.135 455.589 399.126 454.17 397.61L434.92 377.03C451.271 352.841 462.561 325.595 468.11 296.93L496.27 296C498.344 295.927 500.308 295.053 501.75 293.561C503.192 292.069 503.999 290.075 504 288V224C503.999 221.925 503.192 219.931 501.75 218.439C500.308 216.947 498.344 216.073 496.27 216V216ZM488 280.26L461.09 281.16C459.235 281.221 457.458 281.926 456.066 283.154C454.674 284.382 453.752 286.057 453.46 287.89C448.484 318.644 436.397 347.811 418.16 373.07C417.074 374.574 416.545 376.408 416.661 378.26C416.778 380.111 417.534 381.864 418.8 383.22L437.21 402.89L402.89 437.21L383.22 418.8C381.864 417.534 380.111 416.778 378.26 416.661C376.408 416.545 374.574 417.074 373.07 418.16C347.811 436.397 318.644 448.484 287.89 453.46C286.057 453.752 284.382 454.674 283.154 456.066C281.926 457.458 281.221 459.235 281.16 461.09L280.26 488H231.74L230.84 461.09C230.779 459.235 230.074 457.458 228.846 456.066C227.618 454.674 225.943 453.752 224.11 453.46C193.356 448.484 164.189 436.397 138.93 418.16C137.426 417.074 135.592 416.544 133.74 416.661C131.889 416.778 130.136 417.534 128.78 418.8L109.11 437.21L74.79 402.89L93.2 383.22C94.466 381.864 95.222 380.111 95.3387 378.26C95.4554 376.408 94.9257 374.574 93.84 373.07C75.6035 347.811 63.516 318.644 58.54 287.89C58.2477 286.057 57.3263 284.382 55.934 283.154C54.5418 281.926 52.7655 281.221 50.91 281.16L24 280.26V231.74L50.91 230.84C52.7655 230.779 54.5418 230.074 55.934 228.846C57.3263 227.618 58.2477 225.943 58.54 224.11C63.516 193.356 75.6035 164.189 93.84 138.93C94.9257 137.426 95.4554 135.592 95.3387 133.74C95.222 131.889 94.466 130.136 93.2 128.78L74.79 109.11L109.11 74.79L128.78 93.2C130.136 94.466 131.889 95.222 133.74 95.3387C135.592 95.4554 137.426 94.9257 138.93 93.84C164.189 75.6035 193.356 63.516 224.11 58.54C225.943 58.2477 227.618 57.3263 228.846 55.934C230.074 54.5418 230.779 52.7655 230.84 50.91L231.74 24H280.26L281.16 50.91C281.221 52.7655 281.926 54.5418 283.154 55.934C284.382 57.3263 286.057 58.2477 287.89 58.54C318.644 63.516 347.811 75.6035 373.07 93.84C374.574 94.9259 376.408 95.4557 378.26 95.339C380.111 95.2223 381.864 94.4662 383.22 93.2L402.89 74.79L437.21 109.11L418.8 128.78C417.534 130.136 416.778 131.889 416.661 133.74C416.545 135.592 417.074 137.426 418.16 138.93C436.397 164.189 448.484 193.356 453.46 224.11C453.752 225.943 454.674 227.618 456.066 228.846C457.458 230.074 459.235 230.779 461.09 230.84L488 231.74V280.26Z" fill="url(#paint1_linear_1_1905)"/>
<path d="M336 264H320V248H336C338.122 248 340.157 247.157 341.657 245.657C343.157 244.157 344 242.122 344 240C344 237.878 343.157 235.843 341.657 234.343C340.157 232.843 338.122 232 336 232H320V216H328C330.122 216 332.157 215.157 333.657 213.657C335.157 212.157 336 210.122 336 208C336 205.878 335.157 203.843 333.657 202.343C332.157 200.843 330.122 200 328 200H320C320 197.878 319.157 195.843 317.657 194.343C316.157 192.843 314.122 192 312 192V184C312 181.878 311.157 179.843 309.657 178.343C308.157 176.843 306.122 176 304 176C301.878 176 299.843 176.843 298.343 178.343C296.843 179.843 296 181.878 296 184V192H280V176C280 173.878 279.157 171.843 277.657 170.343C276.157 168.843 274.122 168 272 168C269.878 168 267.843 168.843 266.343 170.343C264.843 171.843 264 173.878 264 176V192H248V176C248 173.878 247.157 171.843 245.657 170.343C244.157 168.843 242.122 168 240 168C237.878 168 235.843 168.843 234.343 170.343C232.843 171.843 232 173.878 232 176V192H216V184C216 181.878 215.157 179.843 213.657 178.343C212.157 176.843 210.122 176 208 176C205.878 176 203.843 176.843 202.343 178.343C200.843 179.843 200 181.878 200 184V192C197.878 192 195.843 192.843 194.343 194.343C192.843 195.843 192 197.878 192 200H185C182.878 200 180.843 200.843 179.343 202.343C177.843 203.843 177 205.878 177 208C177 210.122 177.843 212.157 179.343 213.657C180.843 215.157 182.878 216 185 216H192V232H176C173.878 232 171.843 232.843 170.343 234.343C168.843 235.843 168 237.878 168 240C168 242.122 168.843 244.157 170.343 245.657C171.843 247.157 173.878 248 176 248H192V264H176C173.878 264 171.843 264.843 170.343 266.343C168.843 267.843 168 269.878 168 272C168 274.122 168.843 276.157 170.343 277.657C171.843 279.157 173.878 280 176 280H192V296H184C181.878 296 179.843 296.843 178.343 298.343C176.843 299.843 176 301.878 176 304C176 306.122 176.843 308.157 178.343 309.657C179.843 311.157 181.878 312 184 312H192C192 314.122 192.843 316.157 194.343 317.657C195.843 319.157 197.878 320 200 320V328C200 330.122 200.843 332.157 202.343 333.657C203.843 335.157 205.878 336 208 336C210.122 336 212.157 335.157 213.657 333.657C215.157 332.157 216 330.122 216 328V320H232V336C232 338.122 232.843 340.157 234.343 341.657C235.843 343.157 237.878 344 240 344C242.122 344 244.157 343.157 245.657 341.657C247.157 340.157 248 338.122 248 336V320H264V336C264 338.122 264.843 340.157 266.343 341.657C267.843 343.157 269.878 344 272 344C274.122 344 276.157 343.157 277.657 341.657C279.157 340.157 280 338.122 280 336V320H296V328C296 330.122 296.843 332.157 298.343 333.657C299.843 335.157 301.878 336 304 336C306.122 336 308.157 335.157 309.657 333.657C311.157 332.157 312 330.122 312 328V320C314.122 320 316.157 319.157 317.657 317.657C319.157 316.157 320 314.122 320 312H327C329.122 312 331.157 311.157 332.657 309.657C334.157 308.157 335 306.122 335 304C335 301.878 334.157 299.843 332.657 298.343C331.157 296.843 329.122 296 327 296H320V280H336C338.122 280 340.157 279.157 341.657 277.657C343.157 276.157 344 274.122 344 272C344 269.878 343.157 267.843 341.657 266.343C340.157 264.843 338.122 264 336 264ZM304 304H208V208H304V304Z" fill="url(#paint2_linear_1_1905)"/>
<path d="M288 216H224C221.878 216 219.843 216.843 218.343 218.343C216.843 219.843 216 221.878 216 224V288C216 290.122 216.843 292.157 218.343 293.657C219.843 295.157 221.878 296 224 296H288C290.122 296 292.157 295.157 293.657 293.657C295.157 292.157 296 290.122 296 288V224C296 221.878 295.157 219.843 293.657 218.343C292.157 216.843 290.122 216 288 216ZM280 280H232V232H280V280Z" fill="url(#paint3_linear_1_1905)"/>
<defs>
<linearGradient id="paint0_linear_1_1905" x1="-30.164" y1="542.164" x2="501.884" y2="10.116" gradientUnits="userSpaceOnUse">
<stop stop-color="#003F8A"/>
<stop offset="0.518" stop-color="#00D7DF"/>
<stop offset="1" stop-color="#006DF0"/>
</linearGradient>
<linearGradient id="paint1_linear_1_1905" x1="-30.164" y1="542.164" x2="501.884" y2="10.116" gradientUnits="userSpaceOnUse">
<stop stop-color="#003F8A"/>
<stop offset="0.518" stop-color="#00D7DF"/>
<stop offset="1" stop-color="#006DF0"/>
</linearGradient>
<linearGradient id="paint2_linear_1_1905" x1="-30.164" y1="542.164" x2="501.884" y2="10.116" gradientUnits="userSpaceOnUse">
<stop stop-color="#003F8A"/>
<stop offset="0.518" stop-color="#00D7DF"/>
<stop offset="1" stop-color="#006DF0"/>
</linearGradient>
<linearGradient id="paint3_linear_1_1905" x1="-30.164" y1="542.164" x2="501.884" y2="10.116" gradientUnits="userSpaceOnUse">
<stop stop-color="#003F8A"/>
<stop offset="0.518" stop-color="#00D7DF"/>
<stop offset="1" stop-color="#006DF0"/>
</linearGradient>
</defs>
</svg>
