<?xml version="1.0" encoding="UTF-8"?>
<!DOCTYPE svg PUBLIC "-//W3C//DTD SVG 1.1//EN" "http://www.w3.org/Graphics/SVG/1.1/DTD/svg11.dtd">
<!-- Creator: CorelDRAW -->
<svg xmlns="http://www.w3.org/2000/svg" xml:space="preserve" width="7.11111in" height="7.11111in" version="1.1" style="shape-rendering:geometricPrecision; text-rendering:geometricPrecision; image-rendering:optimizeQuality; fill-rule:evenodd; clip-rule:evenodd"
viewBox="0 0 7111 7111"
 xmlns:xlink="http://www.w3.org/1999/xlink">
 <defs>
  <style type="text/css">
   <![CDATA[
    .fil0 {fill:#0E9AA7}
    .fil4 {fill:#333333}
    .fil2 {fill:#CED07D}
    .fil3 {fill:#FE6F69}
    .fil1 {fill:#FFCB5B}
   ]]>
  </style>
 </defs>
 <g id="Layer_x0020_1">
  <metadata id="CorelCorpID_0Corel-Layer"/>
  <path class="fil0" d="M5844 1176c-209,0 -379,-170 -379,-379 0,-209 170,-379 379,-379 209,0 379,170 379,379 0,209 -170,379 -379,379zm0 995c205,-368 654,-1139 654,-1378 0,-360 -293,-654 -654,-654 -361,0 -655,294 -655,654 0,239 450,1010 655,1378z"/>
  <path class="fil1" d="M5632 797c0,117 95,212 212,212 117,0 212,-95 212,-212 0,-118 -95,-213 -212,-213 -117,0 -212,95 -212,213z"/>
  <path class="fil2" d="M1341 5253c0,-117 -96,-213 -213,-213 -117,0 -212,95 -212,213 0,117 95,212 212,212 117,0 213,-95 213,-212z"/>
  <path class="fil3" d="M1128 4874c209,0 379,170 379,379 0,209 -170,379 -379,379 -209,0 -379,-170 -379,-379 0,-209 170,-379 379,-379zm0 1753c205,-368 655,-1139 655,-1377 0,-361 -294,-655 -655,-655 -361,0 -654,294 -654,655 0,238 449,1009 654,1377z"/>
  <path class="fil4" d="M1198 6953c-31,0 -60,-17 -74,-44 -34,-65 -87,-158 -147,-266 -317,-561 -600,-1084 -600,-1324 0,-453 368,-821 821,-821 452,0 821,368 821,821 0,240 -284,763 -600,1324 -61,108 -114,201 -148,266 -14,27 -42,44 -73,44zm0 -2289c-361,0 -655,294 -655,655 0,239 450,1010 655,1377 205,-367 654,-1138 654,-1377 0,-361 -293,-655 -654,-655z"/>
  <path class="fil4" d="M1198 5701c-209,0 -379,-170 -379,-379 0,-209 170,-379 379,-379 209,0 379,170 379,379 0,209 -170,379 -379,379zm0 -591c-117,0 -213,95 -213,212 0,117 96,212 213,212 117,0 212,-95 212,-212 0,-117 -95,-212 -212,-212z"/>
  <path class="fil4" d="M4339 2710c-117,38 -138,194 -35,262 67,43 124,15 192,-5l205 -59c109,-29 145,-165 64,-245 -67,-65 -137,-37 -211,-17l-215 64z"/>
  <path class="fil4" d="M3428 3549c-20,116 98,206 205,157 44,-21 74,-59 83,-107 14,-82 38,-162 76,-237 51,-103 -31,-221 -146,-210 -50,6 -93,35 -115,80 -50,100 -84,207 -103,317z"/>
  <path class="fil4" d="M3693 4783c48,61 133,74 196,32 71,-48 86,-144 34,-211 -52,-66 -80,-136 -107,-215 -21,-63 -80,-104 -147,-100 -96,6 -159,100 -130,191 37,111 81,211 154,303z"/>
  <path class="fil4" d="M4221 5691c6,186 299,196 291,-21 -3,-106 -28,-220 -65,-319 -45,-121 -214,-128 -269,-10 -43,92 39,162 43,350z"/>
  <path class="fil4" d="M3575 6336c-49,16 -86,57 -96,108 -23,111 82,204 189,168 92,-30 203,-76 289,-121 108,-56 105,-211 -6,-262 -76,-34 -128,5 -195,36 -33,15 -150,63 -181,71z"/>
  <path class="fil4" d="M2459 6588c-92,17 -144,111 -110,198 25,64 94,102 161,89l289 -53c51,-10 92,-46 110,-95 37,-106 -55,-213 -166,-192l-284 53 0 0z"/>
  <path class="fil4" d="M1310 6780c-109,18 -159,144 -93,232 48,63 106,61 168,51l260 -43c116,-18 162,-160 81,-245 -60,-63 -128,-43 -202,-31l-214 36z"/>
  <path class="fil4" d="M5837 2641c119,-33 147,-189 45,-261 -65,-44 -124,-19 -193,-2l-206 47c-52,12 -93,50 -108,101 -28,97 49,211 183,181 90,-20 189,-42 279,-66z"/>
  <path class="fil4" d="M5913 2497c-31,0 -59,-17 -73,-45 -34,-64 -87,-157 -148,-265 -316,-561 -600,-1084 -600,-1324 0,-453 369,-821 821,-821 453,0 822,368 822,821 0,240 -284,763 -601,1324 -60,108 -113,201 -147,265 -14,28 -43,45 -74,45zm0 -2289c-360,0 -654,294 -654,655 0,239 449,1010 654,1377 206,-367 655,-1139 655,-1377 0,-361 -294,-655 -655,-655z"/>
  <path class="fil4" d="M5913 1245c-209,0 -379,-170 -379,-379 0,-209 170,-379 379,-379 209,0 379,170 379,379 0,209 -170,379 -379,379zm0 -591c-117,0 -212,95 -212,212 0,117 95,212 212,212 118,0 213,-95 213,-212 0,-117 -95,-212 -213,-212z"/>
 </g>
</svg>
